<mxfile host="app.diagrams.net" modified="2020-05-23T14:56:23.787Z" agent="5.0 (Macintosh; Intel Mac OS X 10_15_4) AppleWebKit/537.36 (KHTML, like Gecko) Chrome/81.0.4044.138 Safari/537.36" etag="rEogdp88uIk2P3lQCX_B" version="13.1.2" type="github">
  <diagram id="6a731a19-8d31-9384-78a2-239565b7b9f0" name="Page-1">
    <mxGraphModel dx="946" dy="591" grid="1" gridSize="10" guides="1" tooltips="1" connect="1" arrows="1" fold="1" page="1" pageScale="1" pageWidth="1169" pageHeight="827" background="#ffffff" math="0" shadow="0">
      <root>
        <mxCell id="0" />
        <mxCell id="1" parent="0" />
        <mxCell id="tBkIKE94KdiAy-Hy8w5i-1808" value="" style="rounded=1;whiteSpace=wrap;html=1;shadow=1;glass=0;comic=0;strokeColor=#000000;strokeWidth=1;fillColor=none;dashed=1;" parent="1" vertex="1">
          <mxGeometry x="340" y="570" width="580" height="90" as="geometry" />
        </mxCell>
        <mxCell id="tBkIKE94KdiAy-Hy8w5i-1810" value="" style="rounded=1;whiteSpace=wrap;html=1;shadow=1;glass=0;comic=0;strokeColor=#000000;strokeWidth=1;fillColor=none;dashed=1;" parent="1" vertex="1">
          <mxGeometry x="310" y="230" width="650" height="250" as="geometry" />
        </mxCell>
        <mxCell id="tBkIKE94KdiAy-Hy8w5i-1809" value="" style="rounded=1;whiteSpace=wrap;html=1;shadow=1;glass=0;comic=0;strokeColor=#000000;strokeWidth=1;fillColor=none;dashed=1;" parent="1" vertex="1">
          <mxGeometry x="310" y="490" width="650" height="270" as="geometry" />
        </mxCell>
        <mxCell id="1769" value="Socket Layer" style="rounded=1;whiteSpace=wrap;html=1;shadow=0;labelBackgroundColor=none;strokeColor=none;strokeWidth=3;fillColor=#f5af58;fontFamily=Helvetica;fontSize=14;fontColor=#FFFFFF;align=center;spacing=5;arcSize=7;perimeterSpacing=2;fontStyle=1" parent="1" vertex="1">
          <mxGeometry x="500" y="280" width="150" height="60" as="geometry" />
        </mxCell>
        <mxCell id="1771" value="Protocol Layer" style="rounded=1;whiteSpace=wrap;html=1;shadow=0;labelBackgroundColor=none;strokeColor=none;strokeWidth=3;fillColor=#12aab5;fontFamily=Helvetica;fontSize=14;fontColor=#FFFFFF;align=center;spacing=5;fontStyle=1;arcSize=7;perimeterSpacing=2;" parent="1" vertex="1">
          <mxGeometry x="650" y="339.9999999999999" width="150" height="60" as="geometry" />
        </mxCell>
        <mxCell id="tBkIKE94KdiAy-Hy8w5i-1788" value="" style="group" parent="1" vertex="1" connectable="0">
          <mxGeometry x="700" y="680" width="170" height="66.5" as="geometry" />
        </mxCell>
        <mxCell id="tBkIKE94KdiAy-Hy8w5i-1789" value="Ring Buffer" style="rounded=1;whiteSpace=wrap;html=1;shadow=0;labelBackgroundColor=none;strokeColor=#FFFFFF;strokeWidth=1;fillColor=#64bbe2;fontFamily=Helvetica;fontSize=14;fontColor=#FFFFFF;align=center;spacing=5;arcSize=7;perimeterSpacing=2;" parent="tBkIKE94KdiAy-Hy8w5i-1788" vertex="1">
          <mxGeometry width="150" height="46.5" as="geometry" />
        </mxCell>
        <mxCell id="tBkIKE94KdiAy-Hy8w5i-1790" value="Ring Buffer" style="rounded=1;whiteSpace=wrap;html=1;shadow=0;labelBackgroundColor=none;strokeColor=#FFFFFF;strokeWidth=1;fillColor=#64bbe2;fontFamily=Helvetica;fontSize=14;fontColor=#FFFFFF;align=center;spacing=5;arcSize=7;perimeterSpacing=2;" parent="tBkIKE94KdiAy-Hy8w5i-1788" vertex="1">
          <mxGeometry x="10" y="10" width="150" height="46.5" as="geometry" />
        </mxCell>
        <mxCell id="tBkIKE94KdiAy-Hy8w5i-1791" value="&lt;b&gt;Ring Buffer&lt;/b&gt;" style="rounded=1;whiteSpace=wrap;html=1;shadow=0;labelBackgroundColor=none;strokeColor=#FFFFFF;strokeWidth=1;fillColor=#64bbe2;fontFamily=Helvetica;fontSize=14;fontColor=#FFFFFF;align=center;spacing=5;arcSize=7;perimeterSpacing=2;" parent="tBkIKE94KdiAy-Hy8w5i-1788" vertex="1">
          <mxGeometry x="20" y="20" width="150" height="46.5" as="geometry" />
        </mxCell>
        <mxCell id="tBkIKE94KdiAy-Hy8w5i-1801" value="" style="group" parent="1" vertex="1" connectable="0">
          <mxGeometry x="400" y="680" width="170" height="66.5" as="geometry" />
        </mxCell>
        <mxCell id="tBkIKE94KdiAy-Hy8w5i-1802" value="Ring Buffer" style="rounded=1;whiteSpace=wrap;html=1;shadow=0;labelBackgroundColor=none;strokeColor=#FFFFFF;strokeWidth=1;fillColor=#64bbe2;fontFamily=Helvetica;fontSize=14;fontColor=#FFFFFF;align=center;spacing=5;arcSize=7;perimeterSpacing=2;" parent="tBkIKE94KdiAy-Hy8w5i-1801" vertex="1">
          <mxGeometry width="150" height="46.5" as="geometry" />
        </mxCell>
        <mxCell id="tBkIKE94KdiAy-Hy8w5i-1803" value="Ring Buffer" style="rounded=1;whiteSpace=wrap;html=1;shadow=0;labelBackgroundColor=none;strokeColor=#FFFFFF;strokeWidth=1;fillColor=#64bbe2;fontFamily=Helvetica;fontSize=14;fontColor=#FFFFFF;align=center;spacing=5;arcSize=7;perimeterSpacing=2;" parent="tBkIKE94KdiAy-Hy8w5i-1801" vertex="1">
          <mxGeometry x="10" y="10" width="150" height="46.5" as="geometry" />
        </mxCell>
        <mxCell id="tBkIKE94KdiAy-Hy8w5i-1804" value="&lt;b&gt;Ring Buffer&lt;/b&gt;" style="rounded=1;whiteSpace=wrap;html=1;shadow=0;labelBackgroundColor=none;strokeColor=#FFFFFF;strokeWidth=1;fillColor=#64bbe2;fontFamily=Helvetica;fontSize=14;fontColor=#FFFFFF;align=center;spacing=5;arcSize=7;perimeterSpacing=2;" parent="tBkIKE94KdiAy-Hy8w5i-1801" vertex="1">
          <mxGeometry x="20" y="20" width="150" height="46.5" as="geometry" />
        </mxCell>
        <mxCell id="tBkIKE94KdiAy-Hy8w5i-1805" value="Device Layer" style="rounded=1;whiteSpace=wrap;html=1;shadow=0;labelBackgroundColor=none;strokeColor=#C73500;strokeWidth=3;fillColor=#FA1E59;fontFamily=Helvetica;fontSize=14;fontColor=#ffffff;align=center;spacing=5;fontStyle=1;arcSize=7;perimeterSpacing=2;" parent="1" vertex="1">
          <mxGeometry x="500" y="399.9999999999999" width="150" height="60" as="geometry" />
        </mxCell>
        <mxCell id="tBkIKE94KdiAy-Hy8w5i-1806" value="Syscall Layer" style="rounded=1;whiteSpace=wrap;html=1;shadow=0;labelBackgroundColor=none;strokeColor=none;strokeWidth=3;fillColor=#F5C378;fontFamily=Helvetica;fontSize=14;fontColor=#FFFFFF;align=center;spacing=5;arcSize=7;perimeterSpacing=2;fontStyle=1" parent="1" vertex="1">
          <mxGeometry x="650" y="190" width="150" height="60" as="geometry" />
        </mxCell>
        <mxCell id="tBkIKE94KdiAy-Hy8w5i-1811" value="App" style="rounded=1;whiteSpace=wrap;html=1;shadow=0;labelBackgroundColor=none;strokeColor=#314354;strokeWidth=3;fillColor=#647687;fontFamily=Helvetica;fontSize=14;fontColor=#ffffff;align=center;spacing=5;arcSize=7;perimeterSpacing=2;fontStyle=1" parent="1" vertex="1">
          <mxGeometry x="500" y="110" width="150" height="60" as="geometry" />
        </mxCell>
        <mxCell id="tBkIKE94KdiAy-Hy8w5i-1812" value="Driver" style="text;html=1;strokeColor=none;fillColor=none;align=center;verticalAlign=middle;whiteSpace=wrap;rounded=0;shadow=1;glass=0;dashed=1;comic=0;fontStyle=3;fontSize=24;" parent="1" vertex="1">
          <mxGeometry x="370" y="520" width="40" height="20" as="geometry" />
        </mxCell>
        <mxCell id="tBkIKE94KdiAy-Hy8w5i-1814" value="XDP" style="text;html=1;strokeColor=none;fillColor=none;align=center;verticalAlign=middle;whiteSpace=wrap;rounded=0;shadow=1;glass=0;dashed=1;comic=0;fontStyle=3;fontSize=24;" parent="1" vertex="1">
          <mxGeometry x="380" y="600" width="40" height="20" as="geometry" />
        </mxCell>
        <mxCell id="tBkIKE94KdiAy-Hy8w5i-1815" value="Network Stack" style="text;html=1;strokeColor=none;fillColor=none;align=center;verticalAlign=middle;whiteSpace=wrap;rounded=0;shadow=1;glass=0;dashed=1;comic=0;fontStyle=3;fontSize=24;" parent="1" vertex="1">
          <mxGeometry x="360" y="280" width="40" height="20" as="geometry" />
        </mxCell>
        <mxCell id="uzKNBsxzHD9ukDFd6xvU-1772" value="" style="group" vertex="1" connectable="0" parent="1">
          <mxGeometry x="530" y="590.5" width="330" height="49" as="geometry" />
        </mxCell>
        <mxCell id="uzKNBsxzHD9ukDFd6xvU-1773" value="" style="group" vertex="1" connectable="0" parent="uzKNBsxzHD9ukDFd6xvU-1772">
          <mxGeometry width="150" height="41.325301204819276" as="geometry" />
        </mxCell>
        <mxCell id="uzKNBsxzHD9ukDFd6xvU-1774" value="eBPF Program" style="rounded=1;whiteSpace=wrap;html=1;shadow=0;labelBackgroundColor=none;strokeColor=none;strokeWidth=3;fillColor=#2F5B7C;fontFamily=Helvetica;fontSize=16;fontColor=#FFFFFF;align=center;fontStyle=1;spacing=5;arcSize=7;perimeterSpacing=2;" vertex="1" parent="uzKNBsxzHD9ukDFd6xvU-1773">
          <mxGeometry width="150" height="41.325301204819276" as="geometry" />
        </mxCell>
        <mxCell id="uzKNBsxzHD9ukDFd6xvU-1775" value="" style="group" vertex="1" connectable="0" parent="uzKNBsxzHD9ukDFd6xvU-1772">
          <mxGeometry x="160" y="1.7710843373493976" width="170" height="47.22891566265061" as="geometry" />
        </mxCell>
        <mxCell id="uzKNBsxzHD9ukDFd6xvU-1776" value="eBPF Maps" style="rounded=1;whiteSpace=wrap;html=1;shadow=0;labelBackgroundColor=none;strokeColor=#FFFFFF;strokeWidth=3;fillColor=#f08e81;fontFamily=Helvetica;fontSize=14;fontColor=#FFFFFF;align=center;spacing=5;fontStyle=0;arcSize=7;perimeterSpacing=2;" vertex="1" parent="uzKNBsxzHD9ukDFd6xvU-1775">
          <mxGeometry width="150" height="35.42168674698795" as="geometry" />
        </mxCell>
        <mxCell id="uzKNBsxzHD9ukDFd6xvU-1777" value="eBPF Maps" style="rounded=1;whiteSpace=wrap;html=1;shadow=0;labelBackgroundColor=none;strokeColor=#FFFFFF;strokeWidth=3;fillColor=#f08e81;fontFamily=Helvetica;fontSize=14;fontColor=#FFFFFF;align=center;spacing=5;fontStyle=0;arcSize=7;perimeterSpacing=2;" vertex="1" parent="uzKNBsxzHD9ukDFd6xvU-1775">
          <mxGeometry x="10" y="5.903614457831326" width="150" height="35.42168674698795" as="geometry" />
        </mxCell>
        <mxCell id="uzKNBsxzHD9ukDFd6xvU-1778" value="&lt;b&gt;eBPF Maps&lt;/b&gt;" style="rounded=1;whiteSpace=wrap;html=1;shadow=0;labelBackgroundColor=none;strokeColor=#FFFFFF;strokeWidth=3;fillColor=#f08e81;fontFamily=Helvetica;fontSize=14;fontColor=#FFFFFF;align=center;spacing=5;fontStyle=0;arcSize=7;perimeterSpacing=2;" vertex="1" parent="uzKNBsxzHD9ukDFd6xvU-1775">
          <mxGeometry x="20" y="11.807228915662652" width="150" height="35.42168674698795" as="geometry" />
        </mxCell>
        <mxCell id="uzKNBsxzHD9ukDFd6xvU-1779" value="" style="group" vertex="1" connectable="0" parent="1">
          <mxGeometry x="630" y="290" width="330" height="49" as="geometry" />
        </mxCell>
        <mxCell id="uzKNBsxzHD9ukDFd6xvU-1780" value="" style="group" vertex="1" connectable="0" parent="uzKNBsxzHD9ukDFd6xvU-1779">
          <mxGeometry width="150" height="41.325301204819276" as="geometry" />
        </mxCell>
        <mxCell id="uzKNBsxzHD9ukDFd6xvU-1781" value="eBPF Program" style="rounded=1;whiteSpace=wrap;html=1;shadow=0;labelBackgroundColor=none;strokeColor=none;strokeWidth=3;fillColor=#2F5B7C;fontFamily=Helvetica;fontSize=16;fontColor=#FFFFFF;align=center;fontStyle=1;spacing=5;arcSize=7;perimeterSpacing=2;" vertex="1" parent="uzKNBsxzHD9ukDFd6xvU-1780">
          <mxGeometry width="150" height="41.325301204819276" as="geometry" />
        </mxCell>
        <mxCell id="uzKNBsxzHD9ukDFd6xvU-1782" value="" style="group" vertex="1" connectable="0" parent="uzKNBsxzHD9ukDFd6xvU-1779">
          <mxGeometry x="160" y="1.7710843373493976" width="170" height="47.22891566265061" as="geometry" />
        </mxCell>
        <mxCell id="uzKNBsxzHD9ukDFd6xvU-1783" value="eBPF Maps" style="rounded=1;whiteSpace=wrap;html=1;shadow=0;labelBackgroundColor=none;strokeColor=#FFFFFF;strokeWidth=3;fillColor=#f08e81;fontFamily=Helvetica;fontSize=14;fontColor=#FFFFFF;align=center;spacing=5;fontStyle=0;arcSize=7;perimeterSpacing=2;" vertex="1" parent="uzKNBsxzHD9ukDFd6xvU-1782">
          <mxGeometry width="150" height="35.42168674698795" as="geometry" />
        </mxCell>
        <mxCell id="uzKNBsxzHD9ukDFd6xvU-1784" value="eBPF Maps" style="rounded=1;whiteSpace=wrap;html=1;shadow=0;labelBackgroundColor=none;strokeColor=#FFFFFF;strokeWidth=3;fillColor=#f08e81;fontFamily=Helvetica;fontSize=14;fontColor=#FFFFFF;align=center;spacing=5;fontStyle=0;arcSize=7;perimeterSpacing=2;" vertex="1" parent="uzKNBsxzHD9ukDFd6xvU-1782">
          <mxGeometry x="10" y="5.903614457831326" width="150" height="35.42168674698795" as="geometry" />
        </mxCell>
        <mxCell id="uzKNBsxzHD9ukDFd6xvU-1785" value="&lt;b&gt;eBPF Maps&lt;/b&gt;" style="rounded=1;whiteSpace=wrap;html=1;shadow=0;labelBackgroundColor=none;strokeColor=#FFFFFF;strokeWidth=3;fillColor=#f08e81;fontFamily=Helvetica;fontSize=14;fontColor=#FFFFFF;align=center;spacing=5;fontStyle=0;arcSize=7;perimeterSpacing=2;" vertex="1" parent="uzKNBsxzHD9ukDFd6xvU-1782">
          <mxGeometry x="20" y="11.807228915662652" width="150" height="35.42168674698795" as="geometry" />
        </mxCell>
        <mxCell id="uzKNBsxzHD9ukDFd6xvU-1787" value="" style="endArrow=classic;html=1;exitX=0.987;exitY=0.391;exitDx=0;exitDy=0;exitPerimeter=0;entryX=0.5;entryY=0;entryDx=0;entryDy=0;fillColor=#e51400;strokeColor=#B20000;dashed=1;dashPattern=1 1;strokeWidth=2;" edge="1" parent="1" source="tBkIKE94KdiAy-Hy8w5i-1811" target="tBkIKE94KdiAy-Hy8w5i-1806">
          <mxGeometry width="50" height="50" relative="1" as="geometry">
            <mxPoint x="750" y="450" as="sourcePoint" />
            <mxPoint x="800" y="400" as="targetPoint" />
            <Array as="points">
              <mxPoint x="725" y="133" />
            </Array>
          </mxGeometry>
        </mxCell>
        <mxCell id="uzKNBsxzHD9ukDFd6xvU-1790" value="&lt;b&gt;&lt;i&gt;&lt;font style=&quot;font-size: 16px&quot;&gt;bpf()&lt;/font&gt;&lt;/i&gt;&lt;/b&gt;" style="edgeLabel;html=1;align=center;verticalAlign=middle;resizable=0;points=[];" vertex="1" connectable="0" parent="uzKNBsxzHD9ukDFd6xvU-1787">
          <mxGeometry x="0.0546" y="-2" relative="1" as="geometry">
            <mxPoint x="-18" y="-5.01" as="offset" />
          </mxGeometry>
        </mxCell>
        <mxCell id="uzKNBsxzHD9ukDFd6xvU-1788" value="" style="endArrow=classic;html=1;entryX=0.5;entryY=0;entryDx=0;entryDy=0;exitX=1;exitY=0.5;exitDx=0;exitDy=0;dashed=1;dashPattern=1 2;strokeWidth=2;fillColor=#e51400;strokeColor=#B20000;" edge="1" parent="1" source="tBkIKE94KdiAy-Hy8w5i-1806" target="uzKNBsxzHD9ukDFd6xvU-1785">
          <mxGeometry width="50" height="50" relative="1" as="geometry">
            <mxPoint x="750" y="480" as="sourcePoint" />
            <mxPoint x="800" y="430" as="targetPoint" />
            <Array as="points">
              <mxPoint x="885" y="220" />
            </Array>
          </mxGeometry>
        </mxCell>
        <mxCell id="uzKNBsxzHD9ukDFd6xvU-1789" value="" style="endArrow=classic;html=1;entryX=0.75;entryY=0;entryDx=0;entryDy=0;dashed=1;dashPattern=1 2;strokeWidth=2;fillColor=#e51400;strokeColor=#B20000;" edge="1" parent="1" target="uzKNBsxzHD9ukDFd6xvU-1778">
          <mxGeometry width="50" height="50" relative="1" as="geometry">
            <mxPoint x="823" y="220" as="sourcePoint" />
            <mxPoint x="800" y="430" as="targetPoint" />
          </mxGeometry>
        </mxCell>
        <mxCell id="uzKNBsxzHD9ukDFd6xvU-1791" value="" style="endArrow=classic;html=1;dashed=1;dashPattern=1 1;strokeWidth=2;exitX=0.75;exitY=1;exitDx=0;exitDy=0;entryX=0;entryY=0.5;entryDx=0;entryDy=0;gradientColor=#97d077;fillColor=#d5e8d4;strokeColor=#82b366;" edge="1" parent="1" source="tBkIKE94KdiAy-Hy8w5i-1811" target="tBkIKE94KdiAy-Hy8w5i-1806">
          <mxGeometry width="50" height="50" relative="1" as="geometry">
            <mxPoint x="750" y="450" as="sourcePoint" />
            <mxPoint x="800" y="400" as="targetPoint" />
            <Array as="points">
              <mxPoint x="614" y="220" />
            </Array>
          </mxGeometry>
        </mxCell>
        <mxCell id="uzKNBsxzHD9ukDFd6xvU-1795" value="&lt;font style=&quot;font-size: 16px&quot;&gt;&lt;b&gt;&lt;i&gt;setsockopt()&lt;/i&gt;&lt;/b&gt;&lt;/font&gt;" style="edgeLabel;html=1;align=center;verticalAlign=middle;resizable=0;points=[];" vertex="1" connectable="0" parent="uzKNBsxzHD9ukDFd6xvU-1791">
          <mxGeometry x="-0.6455" y="-1" relative="1" as="geometry">
            <mxPoint x="-22.7" as="offset" />
          </mxGeometry>
        </mxCell>
        <mxCell id="uzKNBsxzHD9ukDFd6xvU-1792" value="" style="endArrow=classic;html=1;dashed=1;dashPattern=1 1;strokeWidth=2;exitX=0.377;exitY=0.984;exitDx=0;exitDy=0;exitPerimeter=0;gradientColor=#97d077;fillColor=#d5e8d4;strokeColor=#82b366;" edge="1" parent="1" source="tBkIKE94KdiAy-Hy8w5i-1806" target="uzKNBsxzHD9ukDFd6xvU-1781">
          <mxGeometry width="50" height="50" relative="1" as="geometry">
            <mxPoint x="750" y="450" as="sourcePoint" />
            <mxPoint x="705" y="258" as="targetPoint" />
          </mxGeometry>
        </mxCell>
        <mxCell id="uzKNBsxzHD9ukDFd6xvU-1793" value="" style="endArrow=classic;html=1;dashed=1;dashPattern=1 1;strokeWidth=2;entryX=0;entryY=0.5;entryDx=0;entryDy=0;gradientColor=#ffa500;fillColor=#ffcd28;strokeColor=#d79b00;exitX=0;exitY=0.75;exitDx=0;exitDy=0;" edge="1" parent="1" source="tBkIKE94KdiAy-Hy8w5i-1806" target="uzKNBsxzHD9ukDFd6xvU-1774">
          <mxGeometry width="50" height="50" relative="1" as="geometry">
            <mxPoint x="750" y="460" as="sourcePoint" />
            <mxPoint x="575" y="589" as="targetPoint" />
            <Array as="points">
              <mxPoint x="460" y="236" />
              <mxPoint x="460" y="611" />
            </Array>
          </mxGeometry>
        </mxCell>
        <mxCell id="uzKNBsxzHD9ukDFd6xvU-1794" value="&lt;font style=&quot;font-size: 16px&quot;&gt;&lt;b&gt;&lt;i&gt;netlink&lt;/i&gt;&lt;/b&gt;&lt;/font&gt;" style="edgeLabel;html=1;align=center;verticalAlign=middle;resizable=0;points=[];" vertex="1" connectable="0" parent="uzKNBsxzHD9ukDFd6xvU-1793">
          <mxGeometry x="-0.1239" y="-1" relative="1" as="geometry">
            <mxPoint y="56" as="offset" />
          </mxGeometry>
        </mxCell>
      </root>
    </mxGraphModel>
  </diagram>
</mxfile>
